<mxfile host="app.diagrams.net" modified="2023-09-24T14:29:29.996Z" agent="Mozilla/5.0 (Windows NT 10.0; Win64; x64) AppleWebKit/537.36 (KHTML, like Gecko) Chrome/117.0.0.0 Safari/537.36 Edg/117.0.2045.41" version="21.7.2" etag="t2tecwpJ1Yd2y_N8_H9-" type="github">
  <diagram name="Trang-1" id="RVrWBzT6e60hM2Y4Cr0x">
    <mxGraphModel>
      <root>
        <mxCell id="0" />
        <mxCell id="1" parent="0" />
      </root>
    </mxGraphModel>
  </diagram>
</mxfile>
